<svg xmlns="http://www.w3.org/2000/svg" version="1.1" xmlns:xlink="http://www.w3.org/1999/xlink" xmlns:svgjs="http://svgjs.dev/svgjs" width="1500" height="409" viewBox="0 0 1500 409"><g transform="matrix(1,0,0,1,-0.9090909090909918,0.44166141031399775)"><svg viewBox="0 0 396 108" data-background-color="#ffffff" preserveAspectRatio="xMidYMid meet" height="409" width="1500" xmlns="http://www.w3.org/2000/svg" xmlns:xlink="http://www.w3.org/1999/xlink"><g id="tight-bounds" transform="matrix(1,0,0,1,0.2400000000000091,-0.11662452888486996)"><svg viewBox="0 0 395.52 108.23324905776973" height="108.23324905776973" width="395.52"><g><svg viewBox="0 0 667.6634979817591 182.7047675562335" height="108.23324905776973" width="395.52"><g transform="matrix(1,0,0,1,272.143497981759,5.861956430383117)"><svg viewBox="0 0 395.52 170.98085469546726" height="170.98085469546726" width="395.52"><g id="textblocktransform"><svg viewBox="0 0 395.52 170.98085469546726" height="170.98085469546726" width="395.52" id="textblock"><g><svg viewBox="0 0 395.52 117.38651104626925" height="117.38651104626925" width="395.52"><g transform="matrix(1,0,0,1,0,0)"><svg width="395.52" viewBox="0.75 -35.05 119.94 35.599999999999994" height="117.38651104626925" data-palette-color="#52b5d5"><path d="M31.4-0.85L24.2 0.25 21.75-9.5 9.8-9.5 7.15 0 0.75-0.5 5.15-12.65 11.85-34.15 20.8-34.8 27.25-13.4 31.4-0.85ZM20.25-14.8L16.3-28.3 15.65-28.3 11.35-14.8 20.25-14.8ZM36.15-34.5L47-34.5Q51.8-34.5 54.6-32.33 57.4-30.15 57.4-26.5L57.4-26.5Q57.4-20.65 52.6-18.35L52.6-18.35Q59.1-16.1 59.1-10.05L59.1-10.05Q59.1-5.5 55.2-2.48 51.3 0.55 45.4 0.55L45.4 0.55Q42.3 0.55 36.15 0L36.15 0 36.75-12.15 36.15-34.5ZM46.35-14.85L46.35-14.85 42.3-14.85 42.25-13 42.6-4.85Q45.5-4.6 47.05-4.6L47.05-4.6Q49.7-4.6 51.17-5.93 52.65-7.25 52.65-9.8 52.65-12.35 51.15-13.6 49.65-14.85 46.35-14.85ZM45.2-29.45L45.2-29.45 42.75-29.45 42.45-19.7 45.7-19.7Q48.25-19.7 49.6-21.08 50.95-22.45 50.95-25L50.95-25Q50.95-29.45 45.2-29.45ZM92.55-0.85L85.34 0.25 82.9-9.5 70.95-9.5 68.3 0 61.9-0.5 66.3-12.65 73-34.15 81.95-34.8 88.4-13.4 92.55-0.85ZM81.4-14.8L77.45-28.3 76.8-28.3 72.5-14.8 81.4-14.8ZM107.94 0.55L107.94 0.55Q102.39 0.55 98.59-4.1 94.79-8.75 94.79-15.5L94.79-15.5Q94.79-23.75 99.37-29.4 103.94-35.05 110.59-35.05L110.59-35.05Q113.19-35.05 115.42-34.52 117.64-34 118.59-33.45L118.59-33.45 119.49-32.9 116.09-25.95Q114.94-26.95 112.84-27.83 110.74-28.7 109.04-28.7L109.04-28.7Q105.59-28.7 103.52-25.85 101.44-23 101.44-17.73 101.44-12.45 103.59-9.08 105.74-5.7 109.44-5.7L109.44-5.7Q111.84-5.7 113.79-7.2 115.74-8.7 116.54-11.2L116.54-11.2 120.69-8.8Q119.04-4.4 115.64-1.93 112.24 0.55 107.94 0.55Z" opacity="1" transform="matrix(1,0,0,1,0,0)" fill="#52b5d5" class="wordmark-text-0" data-fill-palette-color="primary" id="text-0"></path></svg></g></svg></g><g transform="matrix(1,0,0,1,207.648,145.09864902802832)"><svg viewBox="0 0 187.87199999999999 25.882205667438956" height="25.882205667438956" width="187.87199999999999"><g transform="matrix(1,0,0,1,0,0)"><svg width="187.87199999999999" viewBox="0.73 -37.01 273.96 37.739999999999995" height="25.882205667438956" data-palette-color="#fc6c22"><path d="M0.73-4.27Q0.73-5.18 1.49-5.88 2.25-6.59 2.66-6.86 3.08-7.13 3.22-7.28L3.22-7.28Q3.47-2.83 9.23-2.83L9.23-2.83Q13.77-2.83 19.82-5.66L19.82-5.66Q24.12-7.62 25.59-9.67L25.59-9.67Q26.07-10.3 26.07-10.72 26.07-11.13 25.93-11.38L25.93-11.38 5.66-15.92Q4.79-16.11 3.96-16.75L3.96-16.75Q2.44-17.82 2.44-18.7L2.44-18.7Q2.44-22.07 7.23-24.8L7.23-24.8Q12.5-27.78 21.34-29.3L21.34-29.3Q23.34-29.64 24.32-29.69L24.32-29.69Q24.61-29.59 25.22-29.52 25.83-29.44 26.46-29.3L26.46-29.3Q27.98-28.96 27.73-28.03L27.73-28.03Q27.73-26.37 21.39-25.39L21.39-25.39Q13.18-24.17 11.16-23.34 9.13-22.51 8.23-21.63 7.32-20.75 7.28-19.53L7.28-19.53Q7.28-19.29 8.4-18.99 9.52-18.7 11.08-18.29 12.65-17.87 15.14-17.19L15.14-17.19Q21.19-15.53 29.98-12.99L29.98-12.99Q30.47-11.91 30.47-10.99L30.47-10.99Q30.47-8.4 27.44-6.01L27.44-6.01Q24.02-3.32 17.97-1.46L17.97-1.46Q12.94 0.05 9.96 0.05L9.96 0.05Q7.47 0.05 5.22-0.83 2.98-1.71 1.86-2.54 0.73-3.37 0.73-4.27ZM34.37-8.2L34.37-8.2Q33.2-10.84 33.2-14.4 33.2-17.97 34.35-20.73 35.5-23.49 37.5-25.49L37.5-25.49Q41.75-29.64 48.14-29.64L48.14-29.64Q54.83-29.64 59.18-26.56L59.18-26.56Q64.06-23.05 64.06-16.5L64.06-16.5Q64.06-8.4 60.32-4.54 56.59-0.68 48.68-0.68L48.68-0.68Q37.69-0.68 34.37-8.2ZM37.2-15.38L37.2-15.38Q37.2-3.86 48.83-3.86L48.83-3.86Q54.54-3.86 58.1-7.28L58.1-7.28Q61.67-10.64 61.67-16.11L61.67-16.11Q61.67-21.24 57.42-23.93L57.42-23.93Q53.81-26.27 48.29-26.27L48.29-26.27Q43.89-26.27 40.52-23.1L40.52-23.1Q37.2-19.92 37.2-15.38ZM70.21 0.24L70.21-8.11Q67.48-8.5 67.48-9.38L67.48-9.38Q67.48-10.01 68.4-10.84 69.33-11.67 70.26-12.55L70.26-12.55Q70.26-15.48 69.38-19.12 68.5-22.75 68.11-24.76 67.72-26.76 67.72-28.42 67.72-30.08 68.23-30.52 68.75-30.96 69.72-30.96 70.7-30.96 70.99-30.69 71.28-30.42 71.38-30.03 71.48-29.64 71.5-29.2 71.53-28.76 71.67-28.37L71.67-28.37Q71.92-27.44 73.19-27.44L73.19-27.44Q76.46-27.49 79.73-28 83-28.52 86.23-29.05L86.23-29.05Q92.67-30.13 95.28-30.13 97.9-30.13 99.41-29.98L99.41-29.98Q99.46-29.05 99.6-28.37 99.75-27.69 99.75-27.25L99.75-27.25Q99.75-26.42 98.14-26.66L98.14-26.66Q72.6-25.73 72.6-22.85L72.6-22.85Q72.6-19.68 73.04-17.41 73.48-15.14 73.7-14.55 73.92-13.96 74.21-13.96L74.21-13.96Q77-13.96 79.85-14.45 82.71-14.94 85.57-15.5 88.42-16.06 91.3-16.55 94.18-17.04 96.97-17.04L96.97-17.04Q97.02-17.04 97.02-16.67 97.02-16.31 96.97-15.87L96.97-15.87Q96.82-14.7 96.97-14.7L96.97-14.7Q94.87-13.53 89.35-12.79L89.35-12.79Q86.96-12.45 84.47-12.16 81.98-11.87 79.88-11.52L79.88-11.52Q75.04-10.84 74.26-9.72L74.26-9.72 73.73-0.15Q73.19 0.39 72.5 0.39L72.5 0.39 70.7 0.24Q70.45 0.24 70.21 0.24L70.21 0.24ZM124.16-23.97L124.16-23.97 119.82-24.07Q118.11-24.07 115.86-23.73L115.86-23.73Q115.76-21.83 115.47-18.8L115.47-18.8Q114.45-8.06 114.45-4.86 114.45-1.66 114.54-0.34L114.54-0.34 109.95 0 111.47-24.12 101.07-24.71Q100.68-24.71 100.46-25.34 100.24-25.98 100.24-26.51 100.24-27.05 100.68-27.69 101.12-28.32 101.7-28.32L101.7-28.32Q105.27-28.17 108.88-27.83L108.88-27.83Q115.57-27.25 120.26-27.25L120.26-27.25 123.28-27.34Q126.85-27.44 130.36-28.13L130.36-28.13Q131.14-27.98 131.34-25.68L131.34-25.68Q131.39-25.2 131.39-24.9L131.39-24.9Q128.17-23.97 124.16-23.97ZM168.64-8.11L168.64-8.11Q171.08-16.02 174.31-37.01L174.31-37.01Q177.38-37.01 177.53-35.11L177.53-35.11Q177.58-34.52 177.6-34.28 177.63-34.03 177.43-32.59 177.24-31.15 176.87-28.56 176.5-25.98 175.97-22.56 175.43-19.14 174.75-15.43L174.75-15.43Q173.09-6.69 171.33-0.68L171.33-0.68Q169.57 0.54 168.59-0.29L168.59-0.29Q168.15-0.73 167.81-1.49 167.47-2.25 167.03-3.22L167.03-3.22Q166.4-4.05 164.69-7.62 162.98-11.18 161.93-13.28 160.88-15.38 159.9-17.19L159.9-17.19Q157.66-21.24 156.14-21.92L156.14-21.92Q154.38-19.19 149.89-6.93L149.89-6.93Q149.11-4.79 148.48-2.95 147.84-1.12 147.4 0L147.4 0 144.37-0.15 132.17-28.37Q132.07-28.61 132.07-28.86 132.07-29.1 132.24-29.35 132.41-29.59 132.85-29.79L132.85-29.79Q133.68-30.08 134.51-30.08 135.34-30.08 135.71-29.76 136.07-29.44 136.29-28.96 136.51-28.47 136.66-27.88 136.81-27.29 137.22-26.37 137.64-25.44 138.44-23.63 139.25-21.83 140.18-19.82 141.1-17.82 142.03-15.84 142.96-13.87 143.79-12.21L143.79-12.21Q145.55-8.54 145.99-8.11L145.99-8.11Q151.65-22.07 152.97-24.68 154.29-27.29 154.63-27.88L154.63-27.88Q155.17-28.71 155.46-28.71L155.46-28.71Q157.56-28.71 162.54-19.34L162.54-19.34Q163.91-16.85 165.08-14.55L165.08-14.55Q167.96-8.98 168.64-8.11ZM205.21-17.87L205.21-17.87 206.58-17.87Q207.41-17.87 208.17-17.72 208.92-17.58 208.92-16.65L208.92-16.65Q209.26-14.7 206.63-14.75L206.63-14.75Q205.9-14.79 205.29-14.84 204.68-14.89 204.28-14.87 203.89-14.84 203.94-14.6L203.94-14.6Q204.43-13.18 204.99-11.43 205.55-9.67 206.24-7.91L206.24-7.91Q208-3.56 209.56-1.66L209.56-1.66Q208.73-0.63 207.63 0.05 206.53 0.73 206.46 0.73 206.38 0.73 206.34 0.68L206.34 0.68 199.45-13.82 186.12-10.55 185.63-8.5Q184.22-2.88 182.46-0.68L182.46-0.68Q182.17-0.2 181.24-0.59L181.24-0.59Q179.68-1.17 179.68-1.56L179.68-1.56Q179.68-1.66 180.7-4.39 181.73-7.13 182.78-9.94 183.83-12.74 184.97-15.82 186.12-18.9 187.15-21.68 188.17-24.46 189-26.68 189.83-28.91 190.17-29.91 190.51-30.91 190.64-31.67 190.76-32.42 191-32.96L191-32.96Q191.49-34.08 193.44-34.08L193.44-34.08Q195.54-32.91 196.69-31.03 197.84-29.15 198.64-27 199.45-24.85 200.23-22.66 201.01-20.46 202.33-18.65L202.33-18.65Q202.77-17.97 203.65-17.92 204.53-17.87 205.21-17.87ZM193.01-28.42L193.01-28.42Q192.61-25.44 191.25-22.31 189.88-19.19 189.05-17.46 188.22-15.72 187.63-14.26L187.63-14.26Q190.95-14.26 195.79-16.21L195.79-16.21Q197.01-16.75 198.13-17.19L198.13-17.19Q195.84-27 193.01-28.42ZM216.2-29L216.2-29Q218.88-31.59 225.91-31.59L225.91-31.59Q230.31-31.59 233.29-30.71 236.26-29.83 237.75-28.86 239.24-27.88 239.24-26.71L239.24-26.71Q239.24-24.02 232.99-21.39L232.99-21.39Q232.07-20.95 228.13-19.6 224.2-18.26 222.84-17.77L222.84-17.77Q219.86-16.65 218.88-16.02L218.88-16.02Q218.88-15.77 219.08-15.6 219.27-15.43 220-15.01 220.74-14.6 222.2-13.84 223.67-13.09 226.25-11.67L226.25-11.67Q233.97-7.47 242.12-2.69L242.12-2.69Q242.51-2.39 243.15-1.88 243.78-1.37 243.78-0.76 243.78-0.15 243.39 0.1 243 0.34 242.47 0.46 241.93 0.59 241.34 0.59L241.34 0.59 240.37 0.59Q239.39 0.59 236.29-1.51 233.19-3.61 230.92-5.18 228.65-6.74 226.3-8.2L226.3-8.2Q220.79-11.77 217.56-12.84L217.56-12.84 217.56-1.66Q217.56-0.68 215.9-0.68L215.9-0.68 215.37-0.68Q214.34-0.68 213.85-1.71L213.85-1.71Q213.17-3.27 213.17-7.47L213.17-7.47 213.32-17.29Q213.32-24.51 212.68-29.98L212.68-29.98Q213.85-31.98 215.56-29.83L215.56-29.83Q215.95-29.35 216.2-29ZM232.7-28.42L232.7-28.42 229.53-28.47Q218.49-28.47 216.83-25.93L216.83-25.93Q216.34-25.24 216.34-24.19 216.34-23.14 216.44-22.36L216.44-22.36Q216.68-20.36 217.56-19.48L217.56-19.48Q217.71-19.43 218.08-19.43 218.44-19.43 219.44-19.63 220.44-19.82 222.13-20.34 223.81-20.85 225.72-21.58 227.62-22.31 229.38-23.1L229.38-23.1Q234.9-25.59 234.9-27.15L234.9-27.15Q234.9-28.03 232.7-28.42ZM252.42-30.76L263.31-31.01Q268.2-31.01 269.81-30.37L269.81-30.37 269.81-27.98Q268.49-27.78 266.19-27.76 263.9-27.73 261.31-27.69L261.31-27.69Q254.08-27.54 251.45-26.95L251.45-26.95Q250.62-23.05 250.67-21.63 250.71-20.21 250.76-19.43L250.76-19.43Q250.96-17.53 250.96-14.94L250.96-14.94Q254.28-14.94 258.55-15.53 262.82-16.11 265.17-16.38 267.51-16.65 270-16.65L270-16.65 270-13.96 251.3-11.62 251.59-3.61Q256.43-3.61 261.48-4.08 266.54-4.54 269.15-4.76 271.76-4.98 274.69-4.98L274.69-4.98Q274.69-4 274.1-3.13L274.1-3.13Q272.93-1.56 272-2.2L272-2.2Q263.41-1.27 256.65-0.73 249.88-0.2 247.54 0L247.54 0 247.74-31.15Q249.01-30.76 252.42-30.76L252.42-30.76Z" opacity="1" transform="matrix(1,0,0,1,0,0)" fill="#fc6c22" class="slogan-text-1" data-fill-palette-color="secondary" id="text-1"></path></svg></g></svg></g></svg></g></svg></g><g><svg viewBox="0 0 244.43135999999998 182.7047675562335" height="182.7047675562335" width="244.43135999999998"><g><svg xmlns="http://www.w3.org/2000/svg" xmlns:xlink="http://www.w3.org/1999/xlink" version="1.1" x="0" y="0" viewBox="1.1 13.399999999999999 97.80000000000001 73.10242952049867" enable-background="new 0 0 100 100" xml:space="preserve" height="182.7047675562335" width="244.43135999999998" class="icon-icon-0" data-fill-palette-color="accent" id="icon-0"><path d="M1.1 79.9v-4.1h5.4 0.3V33.2c0-3.4 2.7-6.1 6.1-6.1h23.7c-0.5 2-0.8 4.1-0.8 6.3 0 0.7 0 1.3 0.1 2H15v40.4h21.2v0.4c0 1.3 1 2.3 2.3 2.3h11.6c1.3 0 2.3-1 2.3-2.3v-0.4h21.2V58.5H79c1 0 2-0.1 3-0.2v17.4h0.3 5.4v4.1c0 3.7-3 6.7-6.7 6.7h-6.4H14.2 7.8C4.1 86.6 1.1 83.6 1.1 79.9zM40.8 33.4c0-11 9-20 20-20h18.1c11 0 20 9 20 20 0 11-9 20-20 20H65.4l-9.2 9.2c-0.6 0.6-1.7 0.2-1.7-0.7v-9.5C46.5 49.7 40.8 42.3 40.8 33.4zM52.7 33.5c0 1.1 0.2 2.1 0.6 3.1 0.4 1 1 1.9 1.8 2.7 0.8 0.8 1.7 1.4 2.7 1.8 1 0.4 2 0.6 3.1 0.6 1.1 0 2.1-0.2 3.1-0.6 1-0.4 1.9-1 2.7-1.8l0.6-0.6-2.6-2.6-0.6 0.6c-0.9 0.9-2 1.3-3.2 1.3-1.2 0-2.3-0.5-3.2-1.3-0.9-0.9-1.3-2-1.3-3.2s0.5-2.3 1.3-3.2c0.9-0.9 2-1.3 3.2-1.3 1.2 0 2.3 0.5 3.2 1.3l3.2 3.2 5.8 5.8c0.8 0.8 1.7 1.4 2.7 1.8 1 0.4 2 0.6 3.1 0.6 1.1 0 2.1-0.2 3.1-0.6 1-0.4 1.9-1 2.7-1.8 0.8-0.8 1.4-1.7 1.8-2.7 0.4-1 0.6-2 0.6-3.1 0-1.1-0.2-2.1-0.6-3.1-0.4-1-1-1.9-1.8-2.7-0.8-0.8-1.7-1.4-2.7-1.8-1-0.4-2-0.6-3.1-0.6-1.1 0-2.1 0.2-3.1 0.6-1 0.4-1.9 1-2.7 1.8l-0.7 0.7L75 31l0.7-0.7c0.9-0.9 2-1.3 3.2-1.3 1.2 0 2.3 0.5 3.2 1.3 0.9 0.9 1.3 2 1.3 3.2s-0.5 2.3-1.3 3.2c-0.9 0.9-2 1.3-3.2 1.3-1.2 0-2.3-0.5-3.2-1.3l-1.3-1.3-7.7-7.7c-0.8-0.8-1.7-1.4-2.7-1.8-1-0.4-2-0.6-3.1-0.6-1.1 0-2.1 0.2-3.1 0.6-1 0.4-1.9 1-2.7 1.8-0.8 0.8-1.4 1.7-1.8 2.7C52.9 31.4 52.7 32.4 52.7 33.5z" fill="#fc6c22" data-fill-palette-color="accent"></path></svg></g></svg></g></svg></g><defs></defs></svg><rect width="395.52" height="108.23324905776973" fill="none" stroke="none" visibility="hidden"></rect></g></svg></g></svg>